<svg width="16" height="16" viewBox="0 0 16 16" fill="none" xmlns="http://www.w3.org/2000/svg">
<path d="M7.25 11.1429V8.85714H5.25C4.83437 8.85714 4.5 8.475 4.5 8C4.5 7.525 4.83437 7.14286 5.25 7.14286H7.25V4.85714C7.25 4.38214 7.58437 4 8 4C8.41563 4 8.75 4.38214 8.75 4.85714V7.14286H10.75C11.1656 7.14286 11.5 7.525 11.5 8C11.5 8.475 11.1656 8.85714 10.75 8.85714H8.75V11.1429C8.75 11.6179 8.41563 12 8 12C7.58437 12 7.25 11.6179 7.25 11.1429ZM1 2.28571C1 1.02321 1.89531 0 3 0H13C14.1031 0 15 1.02321 15 2.28571V13.7143C15 14.975 14.1031 16 13 16H3C1.89531 16 1 14.975 1 13.7143V2.28571ZM2.5 2.28571V13.7143C2.5 14.0286 2.72375 14.2857 3 14.2857H13C13.275 14.2857 13.5 14.0286 13.5 13.7143V2.28571C13.5 1.97 13.275 1.71429 13 1.71429H3C2.72375 1.71429 2.5 1.97 2.5 2.28571Z" fill="black"/>
</svg>
