<svg width="16" height="16" viewBox="0 0 16 16" fill="none" xmlns="http://www.w3.org/2000/svg">
<path d="M11.3346 0.603743C12.1158 -0.177444 13.3846 -0.177444 14.1658 0.603743L15.3971 1.83593C16.1783 2.61687 16.1783 3.88437 15.3971 4.66562L13.8846 6.17812L9.82208 2.11624L11.3346 0.603743ZM13.1783 6.88437L5.89083 14.1687C5.56583 14.4937 5.16271 14.7344 4.72208 14.8625L0.961769 15.9687C0.698644 16.0469 0.413957 15.975 0.219894 15.7531C0.0258253 15.5875 -0.046731 15.3031 0.0307065 15.0375L1.13677 11.2781C1.26677 10.8375 1.50521 10.4344 1.83052 10.1094L9.11583 2.82312L13.1783 6.88437Z" fill="black"/>
</svg>
