<svg width="16" height="16" viewBox="0 0 16 16" fill="none" xmlns="http://www.w3.org/2000/svg">
<path d="M11.3346 0.603713C12.1159 -0.177475 13.3846 -0.177475 14.1659 0.603713L15.3971 1.8359C16.1784 2.61684 16.1784 3.88434 15.3971 4.66559L13.8846 6.17809L9.82211 2.11621L11.3346 0.603713ZM13.1784 6.88434L5.89086 14.1687C5.56586 14.4937 5.16274 14.7343 4.72211 14.8625L0.9618 15.9687C0.698675 16.0468 0.413987 15.975 0.219925 15.7531C0.0258558 15.5875 -0.0467004 15.3031 0.0307371 15.0375L1.1368 11.2781C1.2668 10.8375 1.50524 10.4343 1.83055 10.1093L9.11586 2.82309L13.1784 6.88434Z" fill="black"/>
<g clip-path="url(#clip0_28483_13)">
<path d="M0.127979 0.287614C0.332429 -0.0383865 0.709429 -0.0955427 0.970429 0.159989L15.7702 14.6596C16.0302 14.9159 16.0777 15.3877 15.8727 15.7127C15.6677 16.0377 15.2902 16.0971 15.0302 15.8409L0.230079 1.34055C-0.0307214 1.08493 -0.0764464 0.613676 0.127979 0.287614Z" fill="black"/>
</g>
<defs>
<clipPath id="clip0_28483_13">
<rect width="16" height="16" fill="white"/>
</clipPath>
</defs>
</svg>
