<svg width="16" height="16" viewBox="0 0 16 16" fill="none" xmlns="http://www.w3.org/2000/svg">
<path d="M7.61875 10.9929C7.27813 11.3821 6.72187 11.3821 6.38125 10.9929L4.38125 8.70714C4.03969 8.31786 4.03969 7.68214 4.38125 7.29286C4.72187 6.90357 5.27813 6.90357 5.61875 7.29286L7 8.87143L10.3813 5.00714C10.7219 4.61786 11.2781 4.61786 11.6187 5.00714C11.9594 5.39643 11.9594 6.03214 11.6187 6.42143L7.61875 10.9929ZM1 2.28571C1 1.02321 1.89531 0 3 0H13C14.1031 0 15 1.02321 15 2.28571V13.7143C15 14.975 14.1031 16 13 16H3C1.89531 16 1 14.975 1 13.7143V2.28571ZM2.5 2.28571V13.7143C2.5 14.0286 2.72375 14.2857 3 14.2857H13C13.275 14.2857 13.5 14.0286 13.5 13.7143V2.28571C13.5 1.97 13.275 1.71429 13 1.71429H3C2.72375 1.71429 2.5 1.97 2.5 2.28571Z" fill="black"/>
</svg>
